<svg xmlns="http://www.w3.org/2000/svg" style="display: none;">
  <symbol id="icon-menu" viewBox="0 0 24 24">
    <circle cx="12" cy="6" r="2"/>
    <circle cx="12" cy="12" r="2"/>
    <circle cx="12" cy="18" r="2"/>
  </symbol>
  <symbol id="icon-reset" viewBox="0 0 24 24">
    <path d="M12 4V1L8 5l4 4V6c3.31 0 6 2.69 6 6 0 1.01-.25 1.97-.7 2.8l1.46 1.46C19.54 15.03 20 13.57 20 12c0-4.42-3.58-8-8-8zm0 14c-3.31 0-6-2.69-6-6 0-1.01.25-1.97.7-2.8L5.24 7.74C4.46 8.97 4 10.43 4 12c0 4.42 3.58 8 8 8v3l4-4-4-4v3z"/>
  </symbol>
  <symbol id="icon-shuffle" viewBox="0 0 24 24">
    <path d="M10.59 9.17L5.41 4 4 5.41l5.17 5.17 1.42-1.41zM14.5 4l2.04 2.04L4 18.59 5.41 20 17.96 7.46 20 9.5V4h-5.5zm.33 9.41l-1.41 1.41 3.13 3.13L14.5 20H20v-5.5l-2.04 2.04-3.13-3.13z"/>
  </symbol>
</svg>

